# xmcd CD database file
# Copyright (C) 1993-1996 Ti Kan
#
# Track frame offsets:
# 150
# 11772
# 22280
# 33137
# 46260
# 62435
# 74752
# 84532
# 93190
# 104335
# 113515
# 123557
# 134802
# 147185
# 157345
# 170242
# 182032
# 191332
# 203455
# 212720
# 222262
# 232347
# 241667
# 251685
# 262130
# 274447
# 283895
# 293122
# 308820
# 319095
#
# Disc length: 4375 seconds
#
# Revision: 0
# Processed by: cddbd v1.4b41PL1 Copyright (c) Steve Scherf et al.
# Submitted via: inCDius 1.1b5
#
DISCID=d711151e
DTITLE=Tommy Collins - Leonard - Disc 4
DYEAR=1900
DGENRE=
TTITLE0=If I Could Just Go Back
TTITLE1=I Got Mine
TTITLE2=You'd Better Be Nice
TTITLE3=I Can Do That
TTITLE4=I Got Mine
TTITLE5=Shindig In The Barn
TTITLE6=A Million Miles
TTITLE7=Goody Goody Gumdrop (Klippa Kloppa)
TTITLE8=The Clock On The Wall
TTITLE9=The Bee That Gets The Honey
TTITLE10=It's A Big Jump
TTITLE11=It's A Pretty Good Ol' World After All
TTITLE12=Don't Let Me Stand In His Footsteps
TTITLE13=All Of The Monkeys Ain't In The Zoo
TTITLE14=Black Cat
TTITLE15=Take Me Back To The Good Old Days
TTITLE16=Oh What A Dream
TTITLE17=Klippa Kloppa (Goody Goody Gumdrop)
TTITLE18=If You Can't Bite Don't Growl
TTITLE19=A man Gotta Do What A Man Gotta Do
TTITLE20=Man Machine
TTITLE21=The Girl On Sugar Pie Lane
TTITLE22=Poor, Broke, Mixed Up Mess Of A Heart
TTITLE23=Be Serious Ann
TTITLE24=The Fool's Castle
TTITLE25=A Little Time For A  Little Love
TTITLE26=I'm Not Gettin' Anywhere With You
TTITLE27=The Two Sides Of Life
TTITLE28=You're Everything To Me
TTITLE29=A Million Miles
EXTD=
EXTT0=
EXTT1=
EXTT2=
EXTT3=With Wanda Collins
EXTT4=
EXTT5=
EXTT6=
EXTT7=
EXTT8=
EXTT9=
EXTT10=
EXTT11=
EXTT12=
EXTT13=
EXTT14=
EXTT15=
EXTT16=
EXTT17=
EXTT18=
EXTT19=
EXTT20=
EXTT21=
EXTT22=
EXTT23=
EXTT24=
EXTT25=
EXTT26=
EXTT27=
EXTT28=
EXTT29=
PLAYORDER=
